<svg width="64" height="64" viewBox="0 0 64 64" fill="none" xmlns="http://www.w3.org/2000/svg">
    <path d="M5 37C6.104 37 7 36.104 7 35C7 31.141 10.141 28 14 28C14.277 28 14.723 28.068 15.193 28.162V30C15.193 31.104 16.089 32 17.193 32C18.297 32 19.193 31.104 19.193 30V26.781C20.266 20.528 25.629 16 32 16C38.37 16 43.733 20.528 44.807 26.782V30C44.807 31.104 45.703 32 46.807 32C47.911 32 48.807 31.104 48.807 30V28.162C49.277 28.068 49.723 28 50 28C53.859 28 57 31.141 57 35C57 36.104 57.895 37 59 37C60.104 37 61 36.104 61 35C61 30.062 57.728 25.875 53.24 24.488C56.173 21.885 58 18.093 58 14C58 12.896 57.104 12 56 12C50.486 12 46 7.514 46 2C46 0.896 45.104 0 44 0C36.922 0 31.069 5.284 30.143 12.111C23.295 12.849 17.609 17.6 15.688 24.184C15.112 24.079 14.507 24 14 24C7.935 24 3 28.935 3 35C3 36.104 3.895 37 5 37ZM42.168 4.168C43.102 10.153 47.843 14.896 53.828 15.832C53.213 19.078 50.988 21.838 47.966 23.158C45.811 17.21 40.519 12.952 34.174 12.15C34.933 8.111 38.126 4.92 42.168 4.168Z" fill="white"/>
    <path d="M24 43C24 44.104 24.895 45 26 45H62C63.104 45 64 44.104 64 43C64 41.896 63.104 41 62 41H26C24.895 41 24 41.896 24 43Z" fill="white"/>
    <path d="M32 48C30.895 48 30 48.896 30 50C30 51.104 30.895 52 32 52H59C60.104 52 61 51.104 61 50C61 48.896 60.104 48 59 48H32Z" fill="white"/>
    <path d="M62 55H38C36.895 55 36 55.896 36 57C36 58.104 36.895 59 38 59H62C63.104 59 64 58.104 64 57C64 55.896 63.104 55 62 55Z" fill="white"/>
    <path d="M2 45H20C21.104 45 22 44.104 22 43C22 41.896 21.104 41 20 41H2C0.895 41 0 41.896 0 43C0 44.104 0.895 45 2 45Z" fill="white"/>
    <path d="M5 48C3.895 48 3 48.896 3 50C3 51.104 3.895 52 5 52H26C27.104 52 28 51.104 28 50C28 48.896 27.104 48 26 48H5Z" fill="white"/>
    <path d="M32 55H2C0.895 55 0 55.896 0 57C0 58.104 0.895 59 2 59H32C33.104 59 34 58.104 34 57C34 55.896 33.104 55 32 55Z" fill="white"/>
</svg>
